<svg xmlns="http://www.w3.org/2000/svg" x="0px" y="0px" width="50" height="50" viewBox="0 0 100 100">
<path d="M10.267,89.433C11.443,90.443,12.947,91,14.501,91c0.33,0,0.663-0.025,0.998-0.077l13.781-2.148	l18.698,7.891c2.175,0.893,4.473,1.345,6.83,1.345c2.697,0,5.406-0.618,7.868-1.805l25.967-12.754	c4.364-2.104,6.883-6.748,6.267-11.558c-0.422-3.28-2.255-6.195-5.029-7.998c-1.828-1.187-3.944-1.813-6.119-1.813	c-1.093,0-2.178,0.159-3.19,0.464l-9.457,2.77c-2.115-3.058-5.729-4.8-10.227-4.8c-0.415,0-0.847,0.014-1.271,0.041l-6.46,0.386	L44.073,58H69.5c3.584,0,6.5-2.916,6.5-6.5V38.499c0.305-0.127,0.602-0.277,0.888-0.451C78.808,36.876,80,34.75,80,32.5v-7	c0-2.354-1.277-4.53-3.332-5.676l-21.5-12C54.201,7.285,53.106,7,52,7s-2.201,0.285-3.168,0.824L27.333,19.823	C25.277,20.97,24,23.146,24,25.5v7c0,2.25,1.192,2.402,3.108,3.571c0.286,0.176,0.584,2.302,0.892,2.43V51.5	c0,2.046,0.952,3.871,2.434,5.064l-17.257,3.572C10.178,60.76,8,63.436,8,66.5v18C8,86.401,8.828,88.201,10.267,89.433z" opacity=".35"></path><path fill="#f2f2f2" d="M8.267,87.433C9.443,88.443,10.947,89,12.501,89c0.33,0,0.663-0.025,0.998-0.077l13.781-2.148	l18.698,7.891c2.175,0.893,4.473,1.345,6.83,1.345c2.697,0,5.406-0.618,7.868-1.805l25.967-12.754	c4.364-2.104,6.883-6.748,6.267-11.558c-0.422-3.28-2.255-6.195-5.029-7.998c-1.828-1.187-3.944-1.813-6.119-1.813	c-1.093,0-2.178,0.159-3.19,0.464l-9.457,2.77c-2.115-3.058-5.729-4.8-10.227-4.8c-0.415,0-0.847,0.014-1.271,0.041l-6.46,0.386	L42.073,56H67.5c3.584,0,6.5-2.916,6.5-6.5V36.499c0.305-0.127,0.602-0.277,0.888-0.451C76.808,34.876,78,32.75,78,30.5v-7	c0-2.354-1.277-4.53-3.332-5.676l-21.5-12C52.201,5.285,51.106,5,50,5s-2.201,0.285-3.168,0.824L25.333,17.823	C23.277,18.97,22,21.146,22,23.5v7c0,2.25,1.192,4.376,3.108,5.545c0.286,0.176,0.584,0.327,0.892,0.456V49.5	c0,2.046,0.952,3.871,2.434,5.064l-17.257,3.572C8.178,58.76,6,61.436,6,64.5v18C6,84.401,6.828,86.201,8.267,87.433z"></path><path fill="#ffb789" d="M86.463,70.722c-0.373-2.904-3.262-4.779-6.066-3.938l-16.021,4.692l-0.013,0.002	c0.082-0.334,0.137-0.677,0.137-1.031c0-2.621-1.037-5.754-6.495-5.402l-7.684,0.459l-12.427-4.025	c-2.41-0.965-5.051-1.196-7.592-0.664L12.5,64.5v18l13.877-2.157c1.098-0.181,2.224-0.053,3.254,0.369l18.815,7.94	c3.02,1.239,6.424,1.137,9.365-0.281L83.82,75.597C85.658,74.711,86.723,72.747,86.463,70.722z"></path><path fill="#ffe8d9" d="M58.987,68.025c-0.437,0-0.839,0.144-1.168,0.382c-0.027,0.481-0.009,1.092,0.132,1.815	c0.126,0.647,0.393,1.259,0.678,1.773c0.117,0.021,0.236,0.036,0.359,0.036c1.106,0,2.003-0.897,2.003-2.003	S60.093,68.025,58.987,68.025z"></path><path fill="#40396e" d="M52.535,78.001c-0.719,0-1.432-0.088-2.122-0.263l-9.336-2.792	c0,0,9.094,0.641,12.654-0.067l7.451-1.782c0.941-0.393,2.368-2.173,1.793-4.247c-0.221-0.799,0.247-1.625,1.045-1.846	c0.796-0.222,1.625,0.247,1.846,1.045c0.973,3.513-1.187,6.98-3.733,7.896c-0.052,0.019-0.105,0.034-0.159,0.047l-7.583,1.813	C53.776,77.936,53.153,78.001,52.535,78.001z" opacity=".35"></path><polygon fill="#d9eeff" points="71.5,23.5 50,11.5 28.5,23.5 28.5,30.5 32.5,28.449 32.5,49.5 45,49.5 55,49.5 67.5,49.5 67.5,28.449 71.5,30.5"></polygon><polygon fill="#40396e" points="50.004,21.363 32.5,30.186 28.5,23.5 50,11.5 71.5,23.5 67.5,30.132" opacity=".35"></polygon><polygon fill="#ff7575" points="50,11.5 28.5,23.5 28.561,28.811 50,18.006 71.561,28.811 71.5,23.5"></polygon><path fill="#40396e" d="M52.809,91.01c-1.676,0-3.352-0.322-4.932-0.971l-18.83-7.946c-0.76-0.312-1.604-0.406-2.425-0.271	l-13.892,2.16c-0.432,0.066-0.874-0.058-1.206-0.343C11.191,83.355,11,82.939,11,82.5v-18c0-0.711,0.5-1.324,1.196-1.469	l17.801-3.685c2.818-0.591,5.725-0.341,8.405,0.72l12.111,3.923l7.402-0.441c5.446-0.355,7.33,2.253,7.952,4.501	c0.124,0.447,0.199,0.902,0.227,1.36l13.882-4.064c1.751-0.526,3.643-0.254,5.183,0.745c1.541,1.001,2.559,2.619,2.792,4.441	c0.342,2.669-1.056,5.247-3.479,6.416l-26,12.77C56.687,90.578,54.749,91.01,52.809,91.01z M27.354,78.762	c0.968,0,1.936,0.188,2.845,0.562l18.83,7.946c2.609,1.069,5.578,0.98,8.131-0.251L83.159,74.25	c1.269-0.611,1.995-1.951,1.817-3.338c-0.122-0.945-0.65-1.786-1.45-2.306s-1.783-0.659-2.697-0.386L64.748,72.93	c-0.537,0.157-1.117,0.003-1.504-0.401s-0.517-0.99-0.337-1.52c0.244-0.72,0.267-1.445,0.069-2.159	c-0.333-1.2-1.178-2.558-4.874-2.308l-7.692,0.459c-0.186,0.012-0.374-0.013-0.552-0.07l-12.427-4.025	c-0.032-0.01-0.063-0.021-0.095-0.034c-2.144-0.857-4.471-1.06-6.728-0.588L14,65.722v15.027l12.146-1.889	C26.546,78.794,26.95,78.762,27.354,78.762z"></path><rect width="7" height="4" x="46.5" y="27.008" fill="#70bfff"></rect><rect width="10" height="14.5" x="45" y="35" fill="#ff7575"></rect><path fill="#40396e" d="M67.5,51h-35c-0.828,0-1.5-0.672-1.5-1.5V30.904l-1.815,0.931c-0.467,0.238-1.021,0.218-1.467-0.055	C27.271,31.508,27,31.022,27,30.5v-7c0-0.544,0.294-1.045,0.769-1.31l21.5-12c0.455-0.254,1.008-0.254,1.463,0l21.5,12	C72.706,22.455,73,22.956,73,23.5v7c0,0.522-0.271,1.008-0.718,1.28c-0.446,0.271-1.001,0.293-1.467,0.055L69,30.904V49.5	C69,50.328,68.328,51,67.5,51z M34,48h32V28.449c0-0.522,0.271-1.008,0.718-1.28c0.445-0.271,1.001-0.294,1.467-0.055L70,28.045	v-3.664L50,13.218L30,24.381v3.664l1.815-0.931c0.466-0.239,1.021-0.219,1.467,0.055C33.729,27.441,34,27.927,34,28.449V48z"></path>
</svg>